<?xml version="1.0" standalone="no"?>
<!DOCTYPE svg PUBLIC "-//W3C//DTD SVG 20010904//EN"
 "http://www.w3.org/TR/2001/REC-SVG-20010904/DTD/svg10.dtd">
<svg version="1.0" xmlns="http://www.w3.org/2000/svg"
 width="564.000000pt" height="437.000000pt" viewBox="0 0 564.000000 437.000000"
 preserveAspectRatio="xMidYMid meet">

<g transform="translate(0.000000,437.000000) scale(0.100000,-0.100000)"
fill="#000000" stroke="none">
<path d="M0 2185 l0 -2185 2820 0 2820 0 0 2185 0 2185 -2820 0 -2820 0 0
-2185z m3640 1585 c93 -12 215 -46 303 -85 l57 -25 0 -134 0 -135 -62 29
c-196 88 -421 111 -693 71 -71 -11 -274 -56 -450 -100 -389 -97 -462 -111
-635 -118 -206 -9 -364 20 -524 93 l-56 25 0 130 c0 71 3 129 6 129 4 0 47
-16 97 -36 135 -54 246 -74 417 -74 188 -1 293 18 725 125 445 111 600 131
815 105z m125 -560 c44 -12 114 -36 155 -53 l75 -32 3 -133 3 -134 -23 8 c-13
3 -40 15 -60 25 -21 11 -80 31 -130 45 -78 22 -121 27 -263 31 -217 6 -308 -8
-740 -116 -423 -106 -479 -115 -695 -114 -156 0 -186 3 -272 27 -54 14 -129
40 -168 57 l-70 32 0 133 0 134 58 -26 c155 -71 319 -99 522 -91 173 7 243 20
655 122 431 107 484 115 700 111 134 -3 187 -9 250 -26z m10 -540 c43 -12 112
-35 152 -52 l73 -31 0 -133 c0 -74 -2 -134 -4 -134 -2 0 -30 12 -62 26 -145
65 -361 101 -529 89 -147 -11 -293 -40 -610 -120 -325 -82 -468 -110 -615
-120 -179 -13 -395 25 -536 92 l-59 28 -3 133 c-1 72 -1 132 1 132 2 0 35 -14
73 -31 38 -17 112 -43 164 -56 83 -22 117 -26 270 -26 216 -1 272 8 695 114
453 114 489 119 720 115 156 -3 204 -8 270 -26z m-3090 -1430 c115 -198 212
-360 216 -360 3 0 100 162 215 360 l209 360 38 0 37 0 0 -510 0 -510 -35 0
-35 0 -2 441 -3 440 -199 -340 c-181 -309 -202 -341 -226 -341 -23 0 -45 32
-225 342 l-200 341 -3 -441 -2 -442 -35 0 -35 0 0 510 0 510 38 0 37 0 210
-360z m1903 168 c44 -106 141 -336 216 -511 l134 -318 -40 3 -40 3 -71 168
-71 167 -245 -2 -244 -3 -71 -167 -70 -168 -38 0 c-21 0 -38 2 -38 4 0 3 93
222 206 488 113 266 210 493 215 506 6 17 17 22 42 22 l34 0 81 -192z m1032
-318 l0 -510 -40 0 -40 0 0 510 0 510 40 0 40 0 0 -510z m1131 65 l354 -445 3
445 2 445 40 0 40 0 0 -510 0 -510 -37 0 c-38 1 -40 3 -388 440 l-350 439 -3
-439 -2 -440 -35 0 -35 0 0 510 0 510 28 0 c26 0 66 -47 383 -445z"/>
<path d="M2461 1489 c-5 -13 -54 -131 -110 -262 -55 -131 -101 -240 -101 -243
0 -2 99 -4 220 -4 121 0 220 3 220 7 0 8 -210 515 -216 522 -2 2 -8 -7 -13
-20z"/>
</g>
</svg>
